<svg clip-rule="evenodd" fill-rule="evenodd" stroke-linejoin="round" stroke-miterlimit="2" viewBox="0 0 882 210" xmlns="http://www.w3.org/2000/svg"><path d="m116 372h882.843v246h-882.843z" fill="none" transform="matrix(.999045 0 0 .853659 -115.8891 -317.5614)"/><g fill-rule="nonzero"><path d="m.851-.084-.012-.185c-.011-.164-.091-.221-.187-.221-.07 0-.13.036-.156.099-.034-.064-.097-.099-.169-.099-.062 0-.114.032-.143.081v-.059c0-.017-.011-.029-.032-.018l-.102.047c-.011.005-.018.01-.018.018v.003c0 .022.044.025.044.067v.268c0 .039-.04.044-.04.066v.004c0 .009.009.014.022.014h.155c.013 0 .021-.005.021-.014v-.004c0-.022-.04-.027-.04-.066l-.001-.24c.003-.067.043-.119.105-.119.06 0 .105.057.105.159v.2c0 .039-.035.044-.035.066v.004c0 .009.009.014.022.014h.145c.013 0 .021-.005.021-.014v-.004c0-.022-.035-.027-.035-.066v-.193c0-.017-.001-.033-.004-.048.003-.068.045-.118.1-.118.063 0 .1.046.106.17l.01.189c.002.039-.035.044-.035.066v.004c0 .009.008.014.021.014h.147c.012 0 .021-.005.021-.014v-.004c0-.022-.034-.027-.036-.067z" fill="#121212" transform="matrix(187.1018019 0 0 188.5946205 8.013216 157.09294)"/><path d="m.442-.147c-.02.04-.065.073-.132.073-.078 0-.135-.051-.16-.129.042.004.091.007.145-.005.093-.02.161-.072.161-.146 0-.089-.079-.137-.184-.136-.137.001-.242.1-.242.246 0 .152.102.254.249.254.125 0 .186-.088.195-.147.002-.02-.021-.024-.032-.01zm-.187-.303c.053 0 .088.044.089.096.001.069-.03.092-.071.101-.04.008-.093.009-.133.006-.002-.015-.003-.031-.003-.048 0-.087.047-.155.118-.155z" fill="#121212" transform="matrix(187.1018019 0 0 188.5946205 168.35947023 157.09294)"/><path d="m.509-.083v-.649c0-.02-.011-.026-.035-.018l-.106.034c-.011.004-.018.011-.018.02v.002c0 .022.046.023.046.067v.188c-.032-.031-.077-.051-.131-.051-.131 0-.235.102-.235.249 0 .156.111.251.233.251.055 0 .107-.022.14-.064l.003.035c.001.011.008.019.02.019h.104c.011 0 .017-.005.017-.014v-.003c0-.021-.038-.027-.038-.066zm-.219.055c-.091-.002-.149-.118-.146-.254.002-.106.051-.17.125-.17.07 0 .127.071.127.135v.16c0 .087-.057.129-.106.129z" fill="#121212" transform="matrix(187.1018019 0 0 188.5946205 252.18171759 157.09294)"/><path d="m.466-.488-.106.019c-.011.002-.017.009-.017.018v.003c0 .02.039.026.039.067v.204c0 .076-.047.129-.107.129-.061 0-.096-.054-.096-.149l.002-.274c0-.015-.013-.018-.034-.015l-.105.017c-.011.002-.018.009-.018.018v.003c0 .02.038.026.038.067v.173c0 .126.079.208.182.208.061 0 .108-.021.138-.059v.025c0 .144-.044.198-.11.198-.128-.001-.098-.154-.173-.154-.031 0-.05.021-.05.047 0 .072.086.144.208.144.136 0 .242-.083.242-.251v-.421c0-.015-.011-.02-.033-.017z" fill="#121212" transform="matrix(187.1018019 0 0 188.5946205 350.40941346 157.09294)"/><path d="m.549-.443v-.003c0-.011-.006-.018-.018-.021l-.087-.018c-.023-.006-.037.004-.037.021v.037c-.033-.038-.081-.063-.142-.063-.131 0-.235.102-.235.249 0 .156.111.251.233.251.057 0 .112-.024.144-.069v.04c0 .011.008.019.019.019h.104c.011 0 .017-.005.017-.014v-.003c0-.021-.038-.027-.038-.066v-.29c0-.044.04-.053.04-.07zm-.259.415c-.091-.002-.149-.118-.146-.254.002-.106.051-.17.125-.17.07 0 .127.071.127.135v.16c0 .087-.057.129-.106.129z" fill="#121212" transform="matrix(187.1018019 0 0 188.5946205 444.70944174 157.09294)"/><path d="m.532-.084-.012-.189c-.01-.157-.096-.217-.19-.217-.069 0-.124.033-.152.087v-.065c0-.017-.01-.029-.031-.018l-.097.047c-.011.005-.018.01-.018.018v.003c0 .022.045.023.045.067v.268c0 .039-.04.043-.04.065v.004c0 .009.008.015.021.015h.155c.014 0 .022-.006.022-.015v-.004c0-.022-.041-.026-.041-.065v-.235c0-.072.041-.124.105-.124.061 0 .1.051.105.165l.01.193c.002.04-.036.044-.036.066v.004c0 .009.008.015.022.015h.146c.013 0 .022-.006.022-.015v-.004c0-.022-.034-.026-.036-.066z" fill="#121212" transform="matrix(187.1018019 0 0 188.5946205 544.99648764 157.09294)"/><path d="m.3.01c.145 0 .241-.11.241-.247 0-.138-.106-.253-.264-.253-.137 0-.248.103-.248.245 0 .133.101.255.271.255zm.015-.038c-.101 0-.168-.132-.168-.256 0-.11.046-.168.117-.168.092 0 .159.116.159.256 0 .108-.046.168-.108.168z" fill="#121212" transform="matrix(187.1018019 0 0 188.5946205 645.65659695 157.09294)"/><path d="m.222.01c.09 0 .141-.067.141-.134 0-.018-.024-.021-.033-.005-.006.029-.029.052-.071.052-.033 0-.057-.026-.057-.074v-.28h.126c.01 0 .018-.007.018-.017v-.014c0-.01-.008-.018-.018-.018h-.126l-.001-.097c0-.014-.006-.022-.019-.022h-.015c-.01 0-.018.008-.02.022-.008.058-.039.097-.091.097h-.031c-.011 0-.017.007-.017.018v.014c0 .01.007.017.017.017h.057v.279c0 .108.056.162.14.162z" fill="#121212" transform="matrix(187.1018019 0 0 188.5946205 742.20200688 157.09294)"/><path d="m.154-.426.044-.097.042.095c.024.059.107.001.065-.037l-.081-.077.1-.014c.059-.003.035-.099-.019-.068l-.091.049.023-.102c.01-.033-.009-.052-.038-.051-.03.001-.048.02-.04.051l.021.102-.092-.049c-.052-.029-.083.065-.018.068l.102.014-.081.075c-.046.039.038.099.063.041z" fill="#d8103f" transform="matrix(187.1018019 0 0 188.5946205 800.95199268 157.09294)"/></g></svg>