<svg height="600pt" preserveAspectRatio="xMidYMid meet" viewBox="0 0 600 600" width="600pt" xmlns="http://www.w3.org/2000/svg"><path d="m0 3000v-3000h3000 3000v3000 3000h-3000-3000zm3425 1995c172-36 332-127 401-228 61-88 78-149 78-272 0-129-17-202-74-320-102-210-288-454-613-804l-115-124 40-53c22-30 44-54 49-54s98 40 207 89c485 219 740 299 982 308 204 8 320-28 431-133 109-105 155-242 146-439-8-173-58-291-163-384-94-84-210-121-377-121-231 0-515 87-999 306-114 52-212 94-217 94-11 0-81-93-81-107 0-5 57-72 126-149 323-355 523-627 605-823 84-200 75-403-25-548-100-147-383-263-573-236-107 16-206 67-277 144-155 167-213 441-188 881 10 170 39 484 56 605 3 23 0 32-12 36-9 2-40 14-69 25l-52 21-92-162c-424-742-657-989-958-1014-140-12-278 45-391 159-84 84-130 157-165 263-24 71-27 91-23 173 5 84 9 101 46 175 115 231 376 374 935 513 84 21 470 104 483 104 2 0 4 34 4 75v74l-37 7c-327 57-738 170-956 264-169 73-303 169-382 275-62 82-87 152-93 255-4 73-1 96 23 165 35 105 79 175 162 260 199 202 448 217 700 43 166-114 381-411 667-920l77-137 67 25c37 14 67 26 68 27s-9 96-22 212c-84 768-42 1121 156 1322 119 121 270 164 445 128z" transform="matrix(.1 0 0 -.1 0 600)"/></svg>